<svg width="24" height="24" viewBox="0 0 24 24" fill="none" xmlns="http://www.w3.org/2000/svg">
<g clip-path="url(#clip0_1_43)">
<path fill-rule="evenodd" clip-rule="evenodd" d="M4.61316 19.0517C4.68308 19.0224 4.75761 19.0049 4.83353 19H19.1752C19.2423 19 19.3086 19.0148 19.3691 19.0431L20.6825 19.75C20.7804 19.8021 20.8618 19.8795 20.9178 19.9738C20.9737 20.068 21.0021 20.1755 20.9999 20.2845V21.3103C21.001 21.3998 20.9842 21.4886 20.9503 21.5716C20.9163 21.6547 20.866 21.7304 20.8022 21.7945C20.7383 21.8585 20.6622 21.9096 20.5781 21.9449C20.4941 21.9801 20.4038 21.9989 20.3123 22H3.68761C3.59616 21.9989 3.50583 21.9801 3.42178 21.9449C3.33774 21.9096 3.26162 21.8585 3.19777 21.7945C3.13392 21.7304 3.0836 21.6547 3.04968 21.5716C3.01575 21.4886 2.99889 21.3998 3.00006 21.3103V20.2328C2.99931 20.1396 3.0243 20.048 3.0724 19.9675C3.1205 19.8871 3.18991 19.8209 3.27332 19.7759" fill="white"/>
<path fill-rule="evenodd" clip-rule="evenodd" d="M20.8323 8.63214L20.7176 8.55061L12.2382 3.08824C12.1291 3.03026 12.0081 3 11.8853 3C11.7625 3 11.6414 3.03026 11.5323 3.08824L3.17649 8.63214C3.12118 8.67383 3.07633 8.72843 3.04564 8.79144C3.01496 8.85445 2.99932 8.92405 3.00002 8.99449V9.51083C3 9.63901 3.04899 9.76208 3.13644 9.85356C3.2239 9.94504 3.34284 9.99763 3.46767 10H20.5323C20.6571 9.99763 20.7761 9.94504 20.8635 9.85356C20.951 9.76208 21 9.63901 20.9999 9.51083V8.99449C21.001 8.92493 20.9864 8.85606 20.9573 8.79322C20.9283 8.73038 20.8855 8.67526 20.8323 8.63214ZM11.8147 8.04333C11.5966 8.04333 11.3833 7.97692 11.2019 7.8525C11.0206 7.72807 10.8792 7.55123 10.7957 7.34432C10.7122 7.13741 10.6904 6.90974 10.7329 6.69009C10.7755 6.47044 10.8805 6.26867 11.0348 6.11031C11.189 5.95195 11.3856 5.84411 11.5995 5.80042C11.8135 5.75673 12.0352 5.77915 12.2368 5.86486C12.4383 5.95056 12.6106 6.09569 12.7318 6.2819C12.8529 6.46812 12.9176 6.68704 12.9176 6.911C12.9176 7.21131 12.8014 7.49932 12.5946 7.71168C12.3877 7.92403 12.1072 8.04333 11.8147 8.04333Z" fill="white"/>
<path opacity="0.4" fill-rule="evenodd" clip-rule="evenodd" d="M7 19H5V18.9273C5.05705 18.8442 5.08803 18.7418 5.088 18.6364V10.2909C5.08803 10.1855 5.05705 10.0831 5 10H6.992C6.92387 10.0878 6.88681 10.2011 6.888 10.3182V18.6727C6.88613 18.7943 6.92635 18.9118 7 19Z" fill="white"/>
<path opacity="0.4" fill-rule="evenodd" clip-rule="evenodd" d="M11 19H9V18.9367C9.06445 18.8545 9.09889 18.7478 9.09639 18.6382V10.2985C9.09889 10.1889 9.06445 10.0822 9 10H10.9598C10.895 10.0826 10.8581 10.1883 10.8554 10.2985V18.6382C10.8557 18.7065 10.8687 18.774 10.8936 18.8364C10.9185 18.8987 10.9548 18.9544 11 19Z" fill="white"/>
<path opacity="0.4" fill-rule="evenodd" clip-rule="evenodd" d="M14.896 18.6389C14.8948 18.7551 14.9319 18.8677 15 18.9549V19H13C13.0736 18.9124 13.1139 18.7957 13.112 18.675V10.3159C13.1132 10.1997 13.0761 10.0872 13.008 10H15C14.9319 10.0872 14.8948 10.1997 14.896 10.3159V18.6389Z" fill="white"/>
<path opacity="0.4" fill-rule="evenodd" clip-rule="evenodd" d="M18.9268 10.3159V18.6389C18.925 18.7355 18.9506 18.8302 19 18.9097V19H17C17.0441 18.9555 17.0792 18.9011 17.103 18.8404C17.1268 18.7797 17.1388 18.7141 17.1382 18.6479V10.3159C17.1307 10.1947 17.0812 10.0815 17 10H19C18.9417 10.0919 18.9157 10.2042 18.9268 10.3159Z" fill="white"/>
</g>
<defs>
<clipPath id="clip0_1_43">
<rect width="24" height="24" fill="white"/>
</clipPath>
</defs>
</svg>
