<svg width="24" height="24" viewBox="0 0 24 24" fill="none" xmlns="http://www.w3.org/2000/svg">
<g clip-path="url(#clip0_1_41)">
<path fill-rule="evenodd" clip-rule="evenodd" d="M6.16919 10.637H6.75959C6.63356 10.6371 6.50795 10.6516 6.38519 10.6802C6.31705 10.6507 6.24343 10.6359 6.16919 10.637Z" fill="white"/>
<path fill-rule="evenodd" clip-rule="evenodd" d="M17.8662 10.6368H18.2694C18.2027 10.6252 18.1346 10.6252 18.0679 10.6368H17.8662Z" fill="white"/>
<path opacity="0.4" fill-rule="evenodd" clip-rule="evenodd" d="M18.406 10.1183H5.59344C5.50778 10.1183 5.42443 10.072 5.3559 9.98632C5.32611 9.95032 5.30158 9.90358 5.28413 9.8496C5.26669 9.79562 5.25677 9.73577 5.25513 9.67452V9.21882C5.25679 9.09408 5.27587 8.9717 5.31086 8.86138C5.34584 8.75106 5.39576 8.65583 5.45667 8.58323C5.59097 8.40339 5.75954 8.30978 5.93174 8.3194H18.0676C18.2399 8.30978 18.4084 8.40339 18.5427 8.58323C18.6036 8.65583 18.6536 8.75106 18.6885 8.86138C18.7235 8.9717 18.7426 9.09408 18.7443 9.21882V9.67452C18.7426 9.73577 18.7327 9.79562 18.7153 9.8496C18.6978 9.90358 18.6733 9.95032 18.6435 9.98632C18.575 10.072 18.4916 10.1183 18.406 10.1183Z" fill="white"/>
<path opacity="0.4" fill-rule="evenodd" clip-rule="evenodd" d="M17.2544 7.41898H6.73808C6.66554 7.41898 6.59597 7.38058 6.54467 7.31223C6.49337 7.24387 6.46456 7.15116 6.46456 7.0545V6.69961C6.45887 6.51292 6.50792 6.33061 6.60132 6.19125C6.65686 6.12082 6.7224 6.06587 6.79409 6.02963C6.86578 5.9934 6.94218 5.9766 7.01881 5.98024H16.9737C17.0515 5.9753 17.1293 5.99146 17.2023 6.02773C17.2753 6.064 17.342 6.11963 17.3984 6.19125C17.4997 6.32603 17.5566 6.50888 17.5567 6.69961V7.0545C17.5567 7.15116 17.5279 7.24387 17.4766 7.31223C17.4253 7.38058 17.3558 7.41898 17.2832 7.41898H17.2544Z" fill="white"/>
<path opacity="0.4" fill-rule="evenodd" clip-rule="evenodd" d="M16.0932 5.07971H8.24546C8.19133 5.07971 8.13941 5.05091 8.10113 4.99964C8.06285 4.94838 8.04135 4.87885 8.04135 4.80635V4.54018C8.0371 4.40016 8.0737 4.26343 8.1434 4.15891C8.18485 4.10608 8.23376 4.06487 8.28726 4.0377C8.34075 4.01052 8.39777 3.99792 8.45495 4.00065H15.8837C15.9418 3.99695 15.9998 4.00906 16.0543 4.03627C16.1088 4.06347 16.1586 4.10519 16.2006 4.15891C16.2762 4.26 16.3187 4.39714 16.3188 4.54018V4.80635C16.3188 4.87885 16.2973 4.94838 16.259 4.99964C16.2207 5.05091 16.1688 5.07971 16.1147 5.07971H16.0932Z" fill="white"/>
<path fill-rule="evenodd" clip-rule="evenodd" d="M13.641 13.9188C13.7945 14.1464 13.8772 14.4145 13.8785 14.6891V15.9414C13.8659 16.0383 13.816 16.1265 13.7393 16.187C13.6626 16.2475 13.5654 16.2756 13.4682 16.2654H10.5098C10.4147 16.2735 10.3201 16.2442 10.2462 16.1837C10.1723 16.1232 10.1248 16.0363 10.114 15.9414V14.6891C10.1196 14.4884 10.1651 14.2907 10.2479 14.1078C10.3307 13.9249 10.4491 13.7604 10.5962 13.6238C10.9781 13.2777 11.4773 13.0898 11.9926 13.0983C12.3133 13.0913 12.6309 13.1622 12.918 13.3052C13.2052 13.4481 13.4533 13.6587 13.641 13.9188Z" fill="white"/>
<path fill-rule="evenodd" clip-rule="evenodd" d="M19.2412 10.363V15.7112C19.2355 15.8627 19.1704 16.0058 19.0599 16.1096C18.9494 16.2133 18.8025 16.2693 18.6509 16.2654H18.0463C17.9716 16.2674 17.8973 16.2545 17.8276 16.2277C17.7578 16.2009 17.6941 16.1606 17.6399 16.1091C17.5858 16.0577 17.5423 15.996 17.512 15.9277C17.4817 15.8595 17.4651 15.7859 17.4633 15.7112V13.2423C17.4647 13.2207 17.4591 13.1993 17.4475 13.1812C17.4358 13.1631 17.4186 13.1491 17.3985 13.1415C16.9728 13.1272 16.5671 12.9575 16.258 12.6644C15.949 12.3713 15.7581 11.9751 15.7213 11.5507C15.7213 11.5375 15.7187 11.5244 15.7137 11.5122C15.7086 11.4999 15.7012 11.4888 15.6918 11.4795C15.6825 11.4701 15.6713 11.4627 15.6591 11.4576C15.6469 11.4526 15.6338 11.4499 15.6206 11.4499H8.42247C8.3963 11.4516 8.37164 11.4628 8.3531 11.4813C8.33456 11.4999 8.32339 11.5246 8.3217 11.5507C8.2851 11.9936 8.08062 12.4058 7.7501 12.7028C7.4196 12.9999 6.98804 13.1594 6.54378 13.1487V15.704C6.53819 15.8549 6.4743 15.9977 6.36556 16.1024C6.25682 16.2071 6.1117 16.2655 5.96074 16.2654H5.3417C5.1895 16.2674 5.04256 16.2098 4.93227 16.1049C4.82198 16 4.75709 15.8561 4.75146 15.704V10.3127C4.7571 10.1612 4.82223 10.018 4.93273 9.91424C5.04322 9.81048 5.19018 9.75447 5.3417 9.75837H18.543C18.7118 9.76126 18.8742 9.82341 19.0018 9.93393C19.1295 10.0445 19.2142 10.1964 19.2412 10.363Z" fill="white"/>
<path fill-rule="evenodd" clip-rule="evenodd" d="M20.9973 18.3852C21.0009 18.4106 21.0009 18.4364 20.9973 18.4617V19.6633C20.9973 19.7526 20.964 19.8382 20.9046 19.9014C20.8452 19.9645 20.7646 20 20.6806 20H3.4341C3.37678 20 3.32002 19.9879 3.26715 19.9643C3.21428 19.9408 3.16634 19.9063 3.12614 19.8628C3.08594 19.8194 3.05428 19.7678 3.03301 19.7112C3.01173 19.6546 3.00127 19.5941 3.00222 19.5332V18.4388C2.99926 18.4211 2.99926 18.4029 3.00222 18.3852V17.5204C3.00222 17.3824 3.05379 17.25 3.14558 17.1524C3.23738 17.0548 3.36187 17 3.49169 17H4.27628C4.41629 17.002 4.54993 17.0626 4.64828 17.1686C4.74662 17.2745 4.80175 17.4174 4.80173 17.5663V18H19.1978V17.574C19.1997 17.4224 19.2572 17.2775 19.358 17.1703C19.4588 17.0631 19.5951 17.002 19.7377 17H20.4935C20.6271 17 20.7553 17.0564 20.8498 17.1569C20.9443 17.2574 20.9973 17.3936 20.9973 17.5357V18.3393C20.9973 18.3393 20.9973 18.3776 20.9973 18.3852Z" fill="white"/>
</g>
<defs>
<clipPath id="clip0_1_41">
<rect width="24" height="24" fill="white"/>
</clipPath>
</defs>
</svg>
