<svg width="24" height="24" viewBox="0 0 24 24" fill="none" xmlns="http://www.w3.org/2000/svg">
<g clip-path="url(#clip0_1_42)">
<path opacity="0.4" d="M20.64 19H3.36C3.16118 19 3 19.1791 3 19.4V20.6C3 20.8209 3.16118 21 3.36 21H20.64C20.8388 21 21 20.8209 21 20.6V19.4C21 19.1791 20.8388 19 20.64 19Z" fill="white"/>
<path fill-rule="evenodd" clip-rule="evenodd" d="M7.99993 9.71629V16.2837C8.00212 16.4629 7.95174 16.6364 7.85894 16.7694C7.76615 16.9023 7.63785 16.9847 7.49994 17H4.54003C4.46824 16.9989 4.39732 16.9795 4.33133 16.9428C4.26534 16.9062 4.20557 16.8532 4.15543 16.7866C4.10528 16.7201 4.06575 16.6415 4.03909 16.5552C4.01243 16.4689 3.99916 16.3766 4.00004 16.2837V9.71629C3.99916 9.62336 4.01243 9.53111 4.03909 9.44481C4.06575 9.35852 4.10528 9.27987 4.15543 9.21336C4.20557 9.14684 4.26534 9.09376 4.33133 9.05716C4.39732 9.02055 4.46824 9.00113 4.54003 9H7.49994C7.63785 9.01527 7.76615 9.0977 7.85894 9.23064C7.95174 9.36358 8.00212 9.53714 7.99993 9.71629Z" fill="white"/>
<path fill-rule="evenodd" clip-rule="evenodd" d="M14 3.91412V16.0859C14 16.3283 13.922 16.5608 13.7833 16.7323C13.6445 16.9037 13.4563 17 13.26 17H10.74C10.5437 17 10.3555 16.9037 10.2167 16.7323C10.078 16.5608 10 16.3283 10 16.0859V3.91412C10 3.67168 10.078 3.43917 10.2167 3.26774C10.3555 3.09631 10.5437 3 10.74 3H13.26C13.3572 3 13.4534 3.02364 13.5432 3.06958C13.633 3.11552 13.7145 3.18286 13.7833 3.26774C13.852 3.35262 13.9065 3.45339 13.9437 3.5643C13.9809 3.67521 14 3.79407 14 3.91412Z" fill="white"/>
<path fill-rule="evenodd" clip-rule="evenodd" d="M20 6.78321V16.2168C19.9819 16.433 19.9037 16.6327 19.7806 16.7774C19.6575 16.922 19.4981 17.0013 19.3333 17H16.6667C16.5019 17.0013 16.3425 16.922 16.2194 16.7774C16.0963 16.6327 16.0181 16.433 16 16.2168V6.78321C16.0181 6.56698 16.0963 6.36728 16.2194 6.22264C16.3425 6.07801 16.5019 5.9987 16.6667 6.00002H19.3333C19.4981 5.9987 19.6575 6.07801 19.7806 6.22264C19.9037 6.36728 19.9819 6.56698 20 6.78321Z" fill="white"/>
</g>
<defs>
<clipPath id="clip0_1_42">
<rect width="24" height="24" fill="white"/>
</clipPath>
</defs>
</svg>
